#!OML:ASF H:\BreakDance\Project 1\Capture day 1\Session 1\Male.ASF
:FULLY-SPECIFIED
:DEGREES
905
root -4.96473 15.5991 -2.06746 -531.799 -104.513 535.786
lowerback -2.43199 0.199385 6.11729
upperback 3.56421 -0.0520173 -0.258383
thorax 5.07409 0.200262 -3.70547
lowerneck 2.9108 -3.59667 -1.33824
upperneck -3.92445 -4.87417 -0.00157418
head -1.67376 -2.41647 0.335106
rclavicle -2.22887e-014 -1.39149e-015
rhumerus -12.3672 24.427 -84.3623
rradius 44.3244
rwrist -1.28826
rhand -22.3687 325.24
rfingers 7.12502
rthumb 4.0527 -424.701
lclavicle -2.22887e-014 -1.39149e-015
lhumerus -7.06443 -19.2359 75.0234
lradius 59.1471
lwrist 7.94456
lhand -27.741 328.891
lfingers 7.12502
lthumb -1.13576 -1.13272
rfemur -14.5732 17.7794 3.92929
rtibia 38.2279
rfoot -37.345 -0.469925
rtoes -30.7112
lfemur -24.4982 1.80914 3.05012
ltibia 36.175
lfoot -16.7752 11.8549
ltoes -32.0317
906
root -4.97313 15.5753 -1.94403 -533.084 -104.016 536.876
lowerback -2.34966 0.185206 5.74781
upperback 3.6057 -0.043007 -0.386978
thorax 5.06837 0.194103 -3.63129
lowerneck 2.48663 -3.5998 -1.37528
upperneck -3.63666 -4.86708 0.0856258
head -1.50387 -2.41651 0.353544
rclavicle -4.00054e-015 -4.57205e-015
rhumerus -12.3735 24.0149 -84.4414
rradius 44.2632
rwrist -0.746132
rhand -22.7075 325.232
rfingers 7.12502
rthumb 3.7256 -424.715
lclavicle -4.00054e-015 -4.57205e-015
lhumerus -7.59945 -19.3816 75.5256
lradius 58.7369
lwrist 7.41445
lhand -27.3437 329.08
lfingers 7.12502
lthumb -0.75201 -0.941573
rfemur -14.2536 17.7777 3.18011
rtibia 38.0485
rfoot -37.201 -0.493552
rtoes -31.5089
lfemur -24.4128 3.5841 2.13002
ltibia 37.01
lfoot -17.3441 10.6011
ltoes -33.2337
907
root -4.98177 15.5549 -1.82143 -534.333 -103.561 537.984
lowerback -2.32025 0.166977 5.40299
upperback 3.64405 -0.0445856 -0.50932
thorax 5.08882 0.184075 -3.56516
lowerneck 1.99072 -3.59918 -1.41688
upperneck -3.31365 -4.85455 0.163587
head -1.31209 -2.41355 0.367461
rclavicle -2.96686e-014 1.59028e-015
rhumerus -12.3779 23.5025 -84.5496
rradius 44.1578
rwrist -0.0917452
rhand -23.0908 325.195
rfingers 7.12502
rthumb 3.35545 -424.759
lclavicle -2.96686e-014 1.59028e-015
lhumerus -8.07146 -19.4789 76.0373
lradius 58.2264
lwrist 6.82863
lhand -26.97 329.337
lfingers 7.12502
lthumb -0.391084 -0.68322
rfemur -13.9988 17.6981 2.44132
rtibia 37.8814
rfoot -36.9584 -0.485084
rtoes -32.2427
lfemur -24.3899 5.23092 1.25515
ltibia 37.7859
lfoot -17.898 9.56462
ltoes -34.4293
908
root -4.9903 15.5393 -1.69981 -535.674 -103.143 539.248
lowerback -2.34516 0.146344 5.04745
upperback 3.66902 -0.0512851 -0.63318
thorax 5.1258 0.17126 -3.49497
lowerneck 1.47725 -3.59701 -1.43356
upperneck -2.98567 -4.84086 0.193001
head -1.11949 -2.40924 0.361951
rclavicle -2.23633e-016 -1.68967e-015
rhumerus -12.3975 22.8838 -84.6894
rradius 44.0145
rwrist 0.636967
rhand -23.4928 325.15
rfingers 7.12502
rthumb 2.96722 -424.809
lclavicle -2.23633e-016 -1.68967e-015
lhumerus -8.50214 -19.5345 76.5664
lradius 57.62
lwrist 6.15597
lhand -26.6302 329.609
lfingers 7.12502
lthumb -0.0629696 -0.410991
rfemur -13.816 17.5604 1.68006
rtibia 37.7292
rfoot -36.6024 -0.45125
rtoes -32.8869
lfemur -24.4257 6.74849 0.376955
ltibia 38.4971
lfoot -18.3919 8.75204
ltoes -35.6185
909
root -4.99837 15.5298 -1.57933 -537.271 -102.766 540.833
lowerback -2.41674 0.125205 4.65241
upperback 3.67391 -0.0572767 -0.770243
thorax 5.16834 0.157294 -3.41628
lowerneck 0.969821 -3.59451 -1.41211
upperneck -2.65258 -4.82805 0.154653
head -0.930822 -2.40471 0.329882
rclavicle 2.76062e-014 2.38542e-015
rhumerus -12.4472 22.1626 -84.8592
rradius 43.8433
rwrist 1.39334
rhand -23.8707 325.114
rfingers 7.12502
rthumb 2.60228 -424.849
lclavicle 2.76062e-014 2.38542e-015
lhumerus -8.90106 -19.5782 77.1073
lradius 56.9183
lwrist 5.39464
lhand -26.3465 329.836
lfingers 7.12502
lthumb 0.211107 -0.184853
rfemur -13.7052 17.3493 0.863206
rtibia 37.6019
rfoot -36.1262 -0.397623
rtoes -33.4469
lfemur -24.5107 8.10652 -0.547044
ltibia 39.1424
lfoot -18.8133 8.13625
ltoes -36.6895
910
root -5.00552 15.5279 -1.46046 -539.312 -102.438 542.926
lowerback -2.5125 0.105214 4.18949
upperback 3.64827 -0.0562313 -0.938525
thorax 5.1931 0.143894 -3.33133
lowerneck 0.504909 -3.59677 -1.35783
upperneck -2.32439 -4.82303 0.0652649
head -0.754624 -2.40377 0.278552
rclavicle -2.64881e-014 4.17448e-015
rhumerus -12.548 21.3448 -85.0657
rradius 43.6518
rwrist 2.1263
rhand -24.1817 325.095
rfingers 7.12502
rthumb 2.30192 -424.873
lclavicle -2.64881e-014 4.17448e-015
lhumerus -9.27775 -19.6534 77.6487
lradius 56.1216
lwrist 4.55327
lhand -26.147 329.985
lfingers 7.12502
lthumb 0.403802 -0.035914
rfemur -13.6682 17.0414 -0.0438436
rtibia 37.5195
rfoot -35.5246 -0.292726
rtoes -33.8454
lfemur -24.6402 9.25278 -1.55959
ltibia 39.7214
lfoot -19.1665 7.6889
ltoes -37.5065
911
root -5.01108 15.5342 -1.34424 -541.967 -102.182 545.7
lowerback -2.61038 0.0817966 3.61652
upperback 3.58602 -0.0507992 -1.14631
thorax 5.18074 0.127871 -3.22491
lowerneck 0.10703 -3.60924 -1.28994
upperneck -2.01993 -4.83331 -0.0552931
head -0.599458 -2.41031 0.218041
rclavicle -2.91716e-014 6.65929e-015
rhumerus -12.7178 20.4514 -85.3145
rradius 43.4488
rwrist 2.78793
rhand -24.421 325.086
rfingers 7.12502
rthumb 2.07076 -424.884
lclavicle -2.91716e-014 6.65929e-015
lhumerus -9.64122 -19.7633 78.1919
lradius 55.236
lwrist 3.63278
lhand -26.0453 330.063
lfingers 7.12502
lthumb 0.502027 0.0424588
rfemur -13.7144 16.6083 -1.07233
rtibia 37.51
rfoot -34.8008 -0.100516
rtoes -34.0174
lfemur -24.8139 10.1242 -2.6967
ltibia 40.2339
lfoot -19.4791 7.38486
ltoes -37.9555
